<svg width="28" height="28" viewBox="0 0 28 28" fill="none" xmlns="http://www.w3.org/2000/svg">
<path d="M24.7992 20.8574C24.7992 21.2474 24.7125 21.6482 24.5284 22.0382C24.3442 22.4282 24.1059 22.7966 23.7917 23.1432C23.2609 23.7282 22.6759 24.1507 22.015 24.4216C21.365 24.6924 20.6609 24.8332 19.9025 24.8332C18.7975 24.8332 17.6167 24.5732 16.3709 24.0424C15.125 23.5116 13.8792 22.7966 12.6442 21.8974C11.3984 20.9874 10.2175 19.9799 9.09087 18.8641C7.97504 17.7374 6.96754 16.5566 6.06837 15.3216C5.18004 14.0866 4.46504 12.8516 3.94504 11.6274C3.42504 10.3924 3.16504 9.21156 3.16504 8.0849C3.16504 7.34823 3.29504 6.64406 3.55504 5.99406C3.81504 5.33323 4.22671 4.72656 4.80087 4.1849C5.49421 3.5024 6.25254 3.16656 7.05421 3.16656C7.35754 3.16656 7.66087 3.23157 7.93171 3.36156C8.21337 3.49156 8.46254 3.68656 8.65754 3.96823L11.1709 7.51073C11.3659 7.78156 11.5067 8.03073 11.6042 8.26906C11.7017 8.49656 11.7559 8.72406 11.7559 8.9299C11.7559 9.1899 11.68 9.4499 11.5284 9.69906C11.3875 9.94823 11.1817 10.2082 10.9217 10.4682L10.0984 11.3241C9.97921 11.4432 9.92504 11.5841 9.92504 11.7574C9.92504 11.8441 9.93587 11.9199 9.95754 12.0066C9.99004 12.0932 10.0225 12.1582 10.0442 12.2232C10.2392 12.5807 10.575 13.0466 11.0517 13.6099C11.5392 14.1732 12.0592 14.7474 12.6225 15.3216C13.2075 15.8957 13.7709 16.4266 14.345 16.9141C14.9084 17.3907 15.3742 17.7157 15.7425 17.9107C15.7967 17.9324 15.8617 17.9649 15.9375 17.9974C16.0242 18.0299 16.1109 18.0407 16.2084 18.0407C16.3925 18.0407 16.5334 17.9757 16.6525 17.8566L17.4759 17.0441C17.7467 16.7732 18.0067 16.5674 18.2559 16.4374C18.505 16.2857 18.7542 16.2099 19.025 16.2099C19.2309 16.2099 19.4475 16.2532 19.6859 16.3507C19.9242 16.4482 20.1734 16.5891 20.4442 16.7732L24.03 19.3191C24.3117 19.5141 24.5067 19.7416 24.6259 20.0124C24.7342 20.2832 24.7992 20.5541 24.7992 20.8574Z" stroke="#252930" stroke-width="1.5" stroke-miterlimit="10"/>
</svg>
